<svg width="253" height="48" viewBox="0 0 253 48" fill="none" xmlns="http://www.w3.org/2000/svg">
<rect x="29.0859" y="1.54785" width="6.19082" height="37.9188" transform="rotate(-10.3699 29.0859 1.54785)" fill="#1890FF"/>
<path d="M59.656 39.36C57.928 39.36 56.392 39.12 55.048 38.64C53.704 38.16 52.42 37.368 51.196 36.264C50.932 36.072 50.728 35.844 50.584 35.58C50.464 35.292 50.404 35.004 50.404 34.716C50.404 34.26 50.572 33.852 50.908 33.492C51.244 33.132 51.664 32.952 52.168 32.952C52.552 32.952 52.912 33.084 53.248 33.348C54.16 34.188 55.108 34.824 56.092 35.256C57.1 35.688 58.276 35.904 59.62 35.904C60.58 35.904 61.456 35.748 62.248 35.436C63.064 35.124 63.712 34.704 64.192 34.176C64.672 33.648 64.912 33.036 64.912 32.34C64.912 31.476 64.66 30.768 64.156 30.216C63.676 29.64 62.968 29.172 62.032 28.812C61.12 28.428 60.016 28.104 58.72 27.84C57.52 27.624 56.44 27.324 55.48 26.94C54.544 26.556 53.74 26.076 53.068 25.5C52.396 24.9 51.88 24.192 51.52 23.376C51.16 22.56 50.98 21.612 50.98 20.532C50.98 19.068 51.364 17.808 52.132 16.752C52.9 15.696 53.944 14.88 55.264 14.304C56.584 13.728 58.072 13.44 59.728 13.44C61.24 13.44 62.656 13.68 63.976 14.16C65.296 14.616 66.364 15.24 67.18 16.032C67.756 16.536 68.044 17.076 68.044 17.652C68.044 18.084 67.864 18.492 67.504 18.876C67.168 19.236 66.772 19.416 66.316 19.416C65.98 19.416 65.692 19.32 65.452 19.128C65.068 18.72 64.552 18.36 63.904 18.048C63.256 17.712 62.56 17.436 61.816 17.22C61.096 17.004 60.4 16.896 59.728 16.896C58.648 16.896 57.724 17.052 56.956 17.364C56.188 17.652 55.6 18.06 55.192 18.588C54.784 19.092 54.58 19.692 54.58 20.388C54.58 21.204 54.808 21.876 55.264 22.404C55.744 22.932 56.404 23.364 57.244 23.7C58.084 24.012 59.044 24.3 60.124 24.564C61.444 24.852 62.62 25.176 63.652 25.536C64.708 25.896 65.596 26.364 66.316 26.94C67.036 27.492 67.588 28.188 67.972 29.028C68.356 29.868 68.548 30.912 68.548 32.16C68.548 33.6 68.14 34.86 67.324 35.94C66.508 37.02 65.428 37.86 64.084 38.46C62.764 39.06 61.288 39.36 59.656 39.36ZM90.7226 29.532C90.7226 31.452 90.3026 33.156 89.4626 34.644C88.6226 36.108 87.4826 37.26 86.0426 38.1C84.6026 38.94 82.9826 39.36 81.1826 39.36C79.3826 39.36 77.7626 38.94 76.3226 38.1C74.8826 37.26 73.7306 36.108 72.8666 34.644C72.0266 33.156 71.6066 31.452 71.6066 29.532C71.6066 27.588 72.0266 25.884 72.8666 24.42C73.7306 22.932 74.8826 21.768 76.3226 20.928C77.7626 20.064 79.3826 19.632 81.1826 19.632C82.9826 19.632 84.6026 20.064 86.0426 20.928C87.4826 21.768 88.6226 22.932 89.4626 24.42C90.3026 25.884 90.7226 27.588 90.7226 29.532ZM87.1226 29.532C87.1226 28.212 86.8586 27.072 86.3306 26.112C85.8026 25.128 85.0826 24.36 84.1706 23.808C83.2826 23.232 82.2866 22.944 81.1826 22.944C80.0786 22.944 79.0706 23.232 78.1586 23.808C77.2466 24.36 76.5266 25.128 75.9986 26.112C75.4706 27.072 75.2066 28.212 75.2066 29.532C75.2066 30.804 75.4706 31.932 75.9986 32.916C76.5266 33.9 77.2466 34.668 78.1586 35.22C79.0706 35.772 80.0786 36.048 81.1826 36.048C82.2866 36.048 83.2826 35.772 84.1706 35.22C85.0826 34.668 85.8026 33.9 86.3306 32.916C86.8586 31.932 87.1226 30.804 87.1226 29.532ZM98.6853 37.164C98.6853 37.692 98.5053 38.136 98.1453 38.496C97.8093 38.832 97.3893 39 96.8853 39C96.3813 39 95.9493 38.832 95.5893 38.496C95.2533 38.136 95.0853 37.692 95.0853 37.164V14.196C95.0853 13.668 95.2653 13.236 95.6253 12.9C95.9853 12.54 96.4173 12.36 96.9213 12.36C97.4493 12.36 97.8693 12.54 98.1813 12.9C98.5173 13.236 98.6853 13.668 98.6853 14.196V37.164ZM121.836 29.532C121.836 31.452 121.416 33.156 120.576 34.644C119.736 36.108 118.596 37.26 117.156 38.1C115.716 38.94 114.096 39.36 112.296 39.36C110.496 39.36 108.876 38.94 107.436 38.1C105.996 37.26 104.844 36.108 103.98 34.644C103.14 33.156 102.72 31.452 102.72 29.532C102.72 27.588 103.14 25.884 103.98 24.42C104.844 22.932 105.996 21.768 107.436 20.928C108.876 20.064 110.496 19.632 112.296 19.632C114.096 19.632 115.716 20.064 117.156 20.928C118.596 21.768 119.736 22.932 120.576 24.42C121.416 25.884 121.836 27.588 121.836 29.532ZM118.236 29.532C118.236 28.212 117.972 27.072 117.444 26.112C116.916 25.128 116.196 24.36 115.284 23.808C114.396 23.232 113.4 22.944 112.296 22.944C111.192 22.944 110.184 23.232 109.272 23.808C108.36 24.36 107.64 25.128 107.112 26.112C106.584 27.072 106.32 28.212 106.32 29.532C106.32 30.804 106.584 31.932 107.112 32.916C107.64 33.9 108.36 34.668 109.272 35.22C110.184 35.772 111.192 36.048 112.296 36.048C113.4 36.048 114.396 35.772 115.284 35.22C116.196 34.668 116.916 33.9 117.444 32.916C117.972 31.932 118.236 30.804 118.236 29.532ZM134.047 39.36C132.319 39.36 130.783 39.12 129.439 38.64C128.095 38.16 126.811 37.368 125.587 36.264C125.323 36.072 125.119 35.844 124.975 35.58C124.855 35.292 124.795 35.004 124.795 34.716C124.795 34.26 124.963 33.852 125.299 33.492C125.635 33.132 126.055 32.952 126.559 32.952C126.943 32.952 127.303 33.084 127.639 33.348C128.551 34.188 129.499 34.824 130.483 35.256C131.491 35.688 132.667 35.904 134.011 35.904C134.971 35.904 135.847 35.748 136.639 35.436C137.455 35.124 138.103 34.704 138.583 34.176C139.063 33.648 139.303 33.036 139.303 32.34C139.303 31.476 139.051 30.768 138.547 30.216C138.067 29.64 137.359 29.172 136.423 28.812C135.511 28.428 134.407 28.104 133.111 27.84C131.911 27.624 130.831 27.324 129.871 26.94C128.935 26.556 128.131 26.076 127.459 25.5C126.787 24.9 126.271 24.192 125.911 23.376C125.551 22.56 125.371 21.612 125.371 20.532C125.371 19.068 125.755 17.808 126.523 16.752C127.291 15.696 128.335 14.88 129.655 14.304C130.975 13.728 132.463 13.44 134.119 13.44C135.631 13.44 137.047 13.68 138.367 14.16C139.687 14.616 140.755 15.24 141.571 16.032C142.147 16.536 142.435 17.076 142.435 17.652C142.435 18.084 142.255 18.492 141.895 18.876C141.559 19.236 141.163 19.416 140.707 19.416C140.371 19.416 140.083 19.32 139.843 19.128C139.459 18.72 138.943 18.36 138.295 18.048C137.647 17.712 136.951 17.436 136.207 17.22C135.487 17.004 134.791 16.896 134.119 16.896C133.039 16.896 132.115 17.052 131.347 17.364C130.579 17.652 129.991 18.06 129.583 18.588C129.175 19.092 128.971 19.692 128.971 20.388C128.971 21.204 129.199 21.876 129.655 22.404C130.135 22.932 130.795 23.364 131.635 23.7C132.475 24.012 133.435 24.3 134.515 24.564C135.835 24.852 137.011 25.176 138.043 25.536C139.099 25.896 139.987 26.364 140.707 26.94C141.427 27.492 141.979 28.188 142.363 29.028C142.747 29.868 142.939 30.912 142.939 32.16C142.939 33.6 142.531 34.86 141.715 35.94C140.899 37.02 139.819 37.86 138.475 38.46C137.155 39.06 135.679 39.36 134.047 39.36ZM155.357 19.632C156.653 19.632 157.805 19.776 158.813 20.064C159.821 20.328 160.601 20.712 161.153 21.216C161.729 21.696 162.017 22.26 162.017 22.908C162.017 23.316 161.897 23.7 161.657 24.06C161.417 24.396 161.057 24.564 160.577 24.564C160.241 24.564 159.953 24.504 159.713 24.384C159.497 24.264 159.293 24.12 159.101 23.952C158.909 23.784 158.669 23.616 158.381 23.448C158.117 23.304 157.721 23.184 157.193 23.088C156.689 22.992 156.233 22.944 155.825 22.944C154.553 22.944 153.449 23.232 152.513 23.808C151.601 24.384 150.881 25.164 150.353 26.148C149.849 27.132 149.597 28.248 149.597 29.496C149.597 30.744 149.849 31.86 150.353 32.844C150.881 33.828 151.589 34.608 152.477 35.184C153.389 35.76 154.445 36.048 155.645 36.048C156.365 36.048 156.953 36 157.409 35.904C157.865 35.784 158.261 35.64 158.597 35.472C158.957 35.256 159.257 35.04 159.497 34.824C159.761 34.584 160.121 34.464 160.577 34.464C161.105 34.464 161.501 34.632 161.765 34.968C162.053 35.28 162.197 35.676 162.197 36.156C162.197 36.684 161.873 37.2 161.225 37.704C160.601 38.184 159.761 38.58 158.705 38.892C157.649 39.204 156.485 39.36 155.213 39.36C153.341 39.36 151.709 38.928 150.317 38.064C148.949 37.2 147.881 36.024 147.113 34.536C146.369 33.048 145.997 31.368 145.997 29.496C145.997 27.6 146.393 25.92 147.185 24.456C147.977 22.968 149.081 21.792 150.497 20.928C151.913 20.064 153.533 19.632 155.357 19.632ZM175.177 19.74C176.833 19.74 178.117 20.1 179.029 20.82C179.941 21.516 180.577 22.464 180.937 23.664C181.321 24.864 181.513 26.184 181.513 27.624V37.164C181.513 37.692 181.333 38.136 180.973 38.496C180.637 38.832 180.217 39 179.713 39C179.185 39 178.753 38.832 178.417 38.496C178.081 38.136 177.913 37.692 177.913 37.164V27.624C177.913 26.784 177.793 26.016 177.553 25.32C177.337 24.624 176.941 24.072 176.365 23.664C175.813 23.256 175.033 23.052 174.025 23.052C173.089 23.052 172.249 23.256 171.505 23.664C170.785 24.072 170.221 24.624 169.813 25.32C169.429 26.016 169.237 26.784 169.237 27.624V37.164C169.237 37.692 169.057 38.136 168.697 38.496C168.361 38.832 167.941 39 167.437 39C166.909 39 166.477 38.832 166.141 38.496C165.805 38.136 165.637 37.692 165.637 37.164V14.196C165.637 13.668 165.805 13.236 166.141 12.9C166.477 12.54 166.909 12.36 167.437 12.36C167.941 12.36 168.361 12.54 168.697 12.9C169.057 13.236 169.237 13.668 169.237 14.196V24.024L168.589 24.384C168.757 23.856 169.033 23.316 169.417 22.764C169.825 22.212 170.317 21.708 170.893 21.252C171.493 20.796 172.153 20.436 172.873 20.172C173.593 19.884 174.361 19.74 175.177 19.74ZM204.664 29.532C204.664 31.452 204.244 33.156 203.404 34.644C202.564 36.108 201.424 37.26 199.984 38.1C198.544 38.94 196.924 39.36 195.124 39.36C193.324 39.36 191.704 38.94 190.264 38.1C188.824 37.26 187.672 36.108 186.808 34.644C185.968 33.156 185.548 31.452 185.548 29.532C185.548 27.588 185.968 25.884 186.808 24.42C187.672 22.932 188.824 21.768 190.264 20.928C191.704 20.064 193.324 19.632 195.124 19.632C196.924 19.632 198.544 20.064 199.984 20.928C201.424 21.768 202.564 22.932 203.404 24.42C204.244 25.884 204.664 27.588 204.664 29.532ZM201.064 29.532C201.064 28.212 200.8 27.072 200.272 26.112C199.744 25.128 199.024 24.36 198.112 23.808C197.224 23.232 196.228 22.944 195.124 22.944C194.02 22.944 193.012 23.232 192.1 23.808C191.188 24.36 190.468 25.128 189.94 26.112C189.412 27.072 189.148 28.212 189.148 29.532C189.148 30.804 189.412 31.932 189.94 32.916C190.468 33.9 191.188 34.668 192.1 35.22C193.012 35.772 194.02 36.048 195.124 36.048C196.228 36.048 197.224 35.772 198.112 35.22C199.024 34.668 199.744 33.9 200.272 32.916C200.8 31.932 201.064 30.804 201.064 29.532ZM212.627 37.164C212.627 37.692 212.447 38.136 212.087 38.496C211.751 38.832 211.331 39 210.827 39C210.323 39 209.891 38.832 209.531 38.496C209.195 38.136 209.027 37.692 209.027 37.164V14.196C209.027 13.668 209.207 13.236 209.567 12.9C209.927 12.54 210.359 12.36 210.863 12.36C211.391 12.36 211.811 12.54 212.123 12.9C212.459 13.236 212.627 13.668 212.627 14.196V37.164ZM233.501 19.776C234.029 19.776 234.461 19.956 234.797 20.316C235.133 20.652 235.301 21.084 235.301 21.612V37.164C235.301 37.692 235.133 38.136 234.797 38.496C234.461 38.832 234.029 39 233.501 39C232.997 39 232.565 38.832 232.205 38.496C231.869 38.136 231.701 37.692 231.701 37.164V34.572L232.457 34.68C232.457 35.112 232.277 35.592 231.917 36.12C231.581 36.648 231.113 37.164 230.513 37.668C229.913 38.148 229.205 38.556 228.389 38.892C227.573 39.204 226.697 39.36 225.761 39.36C224.105 39.36 222.617 38.94 221.297 38.1C219.977 37.236 218.933 36.06 218.165 34.572C217.397 33.084 217.013 31.392 217.013 29.496C217.013 27.552 217.397 25.848 218.165 24.384C218.933 22.896 219.965 21.732 221.261 20.892C222.581 20.052 224.045 19.632 225.653 19.632C226.685 19.632 227.633 19.8 228.497 20.136C229.385 20.472 230.153 20.904 230.801 21.432C231.449 21.96 231.941 22.524 232.277 23.124C232.637 23.7 232.817 24.252 232.817 24.78L231.701 24.888V21.612C231.701 21.108 231.869 20.676 232.205 20.316C232.565 19.956 232.997 19.776 233.501 19.776ZM226.157 36.048C227.285 36.048 228.281 35.76 229.145 35.184C230.009 34.608 230.681 33.828 231.161 32.844C231.641 31.836 231.881 30.72 231.881 29.496C231.881 28.248 231.641 27.132 231.161 26.148C230.681 25.164 230.009 24.384 229.145 23.808C228.281 23.232 227.285 22.944 226.157 22.944C225.053 22.944 224.069 23.232 223.205 23.808C222.365 24.384 221.693 25.164 221.189 26.148C220.709 27.132 220.469 28.248 220.469 29.496C220.469 30.72 220.709 31.836 221.189 32.844C221.693 33.828 222.365 34.608 223.205 35.184C224.069 35.76 225.053 36.048 226.157 36.048ZM242.144 39C241.616 39 241.184 38.832 240.848 38.496C240.512 38.136 240.344 37.692 240.344 37.164V21.9C240.344 21.372 240.512 20.94 240.848 20.604C241.184 20.244 241.616 20.064 242.144 20.064C242.648 20.064 243.068 20.244 243.404 20.604C243.764 20.94 243.944 21.372 243.944 21.9V25.932L243.584 24.384C243.776 23.712 244.064 23.088 244.448 22.512C244.856 21.936 245.336 21.432 245.888 21C246.44 20.568 247.052 20.232 247.724 19.992C248.42 19.752 249.14 19.632 249.884 19.632C250.508 19.632 251.048 19.8 251.504 20.136C251.96 20.472 252.188 20.892 252.188 21.396C252.188 22.044 252.02 22.524 251.684 22.836C251.348 23.124 250.976 23.268 250.568 23.268C250.208 23.268 249.86 23.196 249.524 23.052C249.188 22.884 248.792 22.8 248.336 22.8C247.832 22.8 247.316 22.932 246.788 23.196C246.26 23.46 245.78 23.856 245.348 24.384C244.916 24.888 244.568 25.488 244.304 26.184C244.064 26.88 243.944 27.66 243.944 28.524V37.164C243.944 37.692 243.764 38.136 243.404 38.496C243.068 38.832 242.648 39 242.144 39Z" fill="url(#paint0_linear_462_3125)"/>
<rect x="12" y="5" width="5" height="34" fill="#1890FF"/>
<rect x="20" width="8" height="39" fill="#1890FF"/>
<path d="M0 12H9V39L4.5 36.6857L0 39V12Z" fill="#1890FF"/>
<defs>
<linearGradient id="paint0_linear_462_3125" x1="49" y1="25" x2="253" y2="25" gradientUnits="userSpaceOnUse">
<stop stop-color="#1890FF"/>
<stop offset="1" stop-color="#0E5699"/>
</linearGradient>
</defs>
</svg>
